# xmcd
#
# Track frame offsets:
#       150
#       11238
#       25368
#       37356
#       48975
#       63189
#       77216
#       90717
#       103282
#       121176
#       141757
#
# Disc length: 2091 seconds
#
# Revision: 0
# Processed by: cddbd v1.4PL0 Copyright (c) Steve Scherf et al.
# Submitted via: WhereIsIt 3.26
#
DISCID=9808290b
DTITLE=New Riders Of The Purple Sage - Home, Home On The Road - LP
DYEAR=1900
DGENRE=
TTITLE0=Hi, Hello, How Are You
TTITLE1=She's No Angel
TTITLE2=Groupie
TTITLE3=Sunday Susie
TTITLE4=Kick in the Head
TTITLE5=Truck Drivin' Man
TTITLE6=Hello Mary Lou
TTITLE7=Sutter's Mill
TTITLE8=Dead Flowers
TTITLE9=Henry
TTITLE10=School Days
EXTD=
EXTT0=
EXTT1=
EXTT2=
EXTT3=
EXTT4=
EXTT5=
EXTT6=
EXTT7=
EXTT8=
EXTT9=
EXTT10=
PLAYORDER=
